<mxfile host="Electron" modified="2023-09-25T15:48:37.150Z" agent="Mozilla/5.0 (Windows NT 10.0; Win64; x64) AppleWebKit/537.36 (KHTML, like Gecko) draw.io/21.7.5 Chrome/114.0.5735.289 Electron/25.8.1 Safari/537.36" etag="8FPnBErN2Hc3bEqNm22B" version="21.7.5" type="device">
  <diagram name="Page-1" id="WDDYNK7wP2cwx-LC0Vb4">
    <mxGraphModel dx="1021" dy="605" grid="1" gridSize="10" guides="1" tooltips="1" connect="1" arrows="1" fold="1" page="1" pageScale="1" pageWidth="850" pageHeight="1100" math="0" shadow="0">
      <root>
        <mxCell id="0" />
        <mxCell id="1" parent="0" />
        <mxCell id="KqwY5eyeyUPcqFjvpQES-1" value="" style="ellipse;fillColor=strokeColor;html=1;" vertex="1" parent="1">
          <mxGeometry x="379" y="140" width="30" height="30" as="geometry" />
        </mxCell>
        <mxCell id="KqwY5eyeyUPcqFjvpQES-3" style="edgeStyle=orthogonalEdgeStyle;rounded=0;orthogonalLoop=1;jettySize=auto;html=1;exitX=0.5;exitY=1;exitDx=0;exitDy=0;entryX=0.5;entryY=0;entryDx=0;entryDy=0;" edge="1" parent="1" source="KqwY5eyeyUPcqFjvpQES-1" target="KqwY5eyeyUPcqFjvpQES-2">
          <mxGeometry relative="1" as="geometry" />
        </mxCell>
        <mxCell id="KqwY5eyeyUPcqFjvpQES-5" style="edgeStyle=orthogonalEdgeStyle;rounded=0;orthogonalLoop=1;jettySize=auto;html=1;exitX=0.5;exitY=1;exitDx=0;exitDy=0;" edge="1" parent="1" source="KqwY5eyeyUPcqFjvpQES-2" target="KqwY5eyeyUPcqFjvpQES-4">
          <mxGeometry relative="1" as="geometry" />
        </mxCell>
        <mxCell id="KqwY5eyeyUPcqFjvpQES-11" value="becomes busy" style="edgeLabel;html=1;align=center;verticalAlign=middle;resizable=0;points=[];" vertex="1" connectable="0" parent="KqwY5eyeyUPcqFjvpQES-5">
          <mxGeometry x="0.0546" relative="1" as="geometry">
            <mxPoint x="37" y="-5" as="offset" />
          </mxGeometry>
        </mxCell>
        <mxCell id="KqwY5eyeyUPcqFjvpQES-2" value="Select Floor" style="html=1;align=center;verticalAlign=top;rounded=1;absoluteArcSize=1;arcSize=10;dashed=0;whiteSpace=wrap;" vertex="1" parent="1">
          <mxGeometry x="344" y="220" width="100" height="30" as="geometry" />
        </mxCell>
        <mxCell id="KqwY5eyeyUPcqFjvpQES-8" style="edgeStyle=orthogonalEdgeStyle;rounded=0;orthogonalLoop=1;jettySize=auto;html=1;exitX=0.5;exitY=1;exitDx=0;exitDy=0;" edge="1" parent="1" source="KqwY5eyeyUPcqFjvpQES-4" target="KqwY5eyeyUPcqFjvpQES-10">
          <mxGeometry relative="1" as="geometry">
            <mxPoint x="394.5" y="370" as="targetPoint" />
          </mxGeometry>
        </mxCell>
        <mxCell id="KqwY5eyeyUPcqFjvpQES-9" value="top/bottom" style="edgeLabel;html=1;align=center;verticalAlign=middle;resizable=0;points=[];" vertex="1" connectable="0" parent="KqwY5eyeyUPcqFjvpQES-8">
          <mxGeometry x="-0.0958" y="-1" relative="1" as="geometry">
            <mxPoint x="30" y="1" as="offset" />
          </mxGeometry>
        </mxCell>
        <mxCell id="KqwY5eyeyUPcqFjvpQES-4" value="Toggle state" style="html=1;align=center;verticalAlign=top;rounded=1;absoluteArcSize=1;arcSize=10;dashed=0;whiteSpace=wrap;" vertex="1" parent="1">
          <mxGeometry x="332" y="290" width="125" height="30" as="geometry" />
        </mxCell>
        <mxCell id="KqwY5eyeyUPcqFjvpQES-13" style="edgeStyle=orthogonalEdgeStyle;rounded=0;orthogonalLoop=1;jettySize=auto;html=1;exitX=0.5;exitY=1;exitDx=0;exitDy=0;" edge="1" parent="1" source="KqwY5eyeyUPcqFjvpQES-10" target="KqwY5eyeyUPcqFjvpQES-12">
          <mxGeometry relative="1" as="geometry" />
        </mxCell>
        <mxCell id="KqwY5eyeyUPcqFjvpQES-10" value="Sets Direction" style="html=1;align=center;verticalAlign=top;rounded=1;absoluteArcSize=1;arcSize=10;dashed=0;whiteSpace=wrap;" vertex="1" parent="1">
          <mxGeometry x="346.75" y="360" width="95.5" height="30" as="geometry" />
        </mxCell>
        <mxCell id="KqwY5eyeyUPcqFjvpQES-15" style="edgeStyle=orthogonalEdgeStyle;rounded=0;orthogonalLoop=1;jettySize=auto;html=1;exitX=0.5;exitY=1;exitDx=0;exitDy=0;entryX=0.5;entryY=0;entryDx=0;entryDy=0;" edge="1" parent="1" source="KqwY5eyeyUPcqFjvpQES-12" target="KqwY5eyeyUPcqFjvpQES-21">
          <mxGeometry relative="1" as="geometry" />
        </mxCell>
        <mxCell id="KqwY5eyeyUPcqFjvpQES-12" value="Door close" style="html=1;align=center;verticalAlign=top;rounded=1;absoluteArcSize=1;arcSize=10;dashed=0;whiteSpace=wrap;" vertex="1" parent="1">
          <mxGeometry x="352" y="430" width="85" height="30" as="geometry" />
        </mxCell>
        <mxCell id="KqwY5eyeyUPcqFjvpQES-24" style="edgeStyle=orthogonalEdgeStyle;rounded=0;orthogonalLoop=1;jettySize=auto;html=1;exitX=0.5;exitY=1;exitDx=0;exitDy=0;entryX=0.5;entryY=0;entryDx=0;entryDy=0;" edge="1" parent="1" source="KqwY5eyeyUPcqFjvpQES-14" target="KqwY5eyeyUPcqFjvpQES-18">
          <mxGeometry relative="1" as="geometry" />
        </mxCell>
        <mxCell id="KqwY5eyeyUPcqFjvpQES-29" value="Yes" style="edgeLabel;html=1;align=center;verticalAlign=middle;resizable=0;points=[];" vertex="1" connectable="0" parent="KqwY5eyeyUPcqFjvpQES-24">
          <mxGeometry x="0.0454" y="-4" relative="1" as="geometry">
            <mxPoint x="15" y="-6" as="offset" />
          </mxGeometry>
        </mxCell>
        <mxCell id="KqwY5eyeyUPcqFjvpQES-25" style="edgeStyle=orthogonalEdgeStyle;rounded=0;orthogonalLoop=1;jettySize=auto;html=1;exitX=1;exitY=0.5;exitDx=0;exitDy=0;entryX=1;entryY=0.5;entryDx=0;entryDy=0;" edge="1" parent="1" source="KqwY5eyeyUPcqFjvpQES-14" target="KqwY5eyeyUPcqFjvpQES-21">
          <mxGeometry relative="1" as="geometry">
            <mxPoint x="497" y="635" as="targetPoint" />
            <Array as="points">
              <mxPoint x="519" y="585" />
              <mxPoint x="519" y="515" />
            </Array>
          </mxGeometry>
        </mxCell>
        <mxCell id="KqwY5eyeyUPcqFjvpQES-30" value="No" style="edgeLabel;html=1;align=center;verticalAlign=middle;resizable=0;points=[];" vertex="1" connectable="0" parent="KqwY5eyeyUPcqFjvpQES-25">
          <mxGeometry x="-0.195" y="-1" relative="1" as="geometry">
            <mxPoint x="-3" y="-37" as="offset" />
          </mxGeometry>
        </mxCell>
        <mxCell id="KqwY5eyeyUPcqFjvpQES-14" value="" style="rhombus;" vertex="1" parent="1">
          <mxGeometry x="379.5" y="570" width="30" height="30" as="geometry" />
        </mxCell>
        <mxCell id="KqwY5eyeyUPcqFjvpQES-33" style="edgeStyle=orthogonalEdgeStyle;rounded=0;orthogonalLoop=1;jettySize=auto;html=1;exitX=0.5;exitY=1;exitDx=0;exitDy=0;entryX=0.5;entryY=0;entryDx=0;entryDy=0;" edge="1" parent="1" source="KqwY5eyeyUPcqFjvpQES-18" target="KqwY5eyeyUPcqFjvpQES-32">
          <mxGeometry relative="1" as="geometry" />
        </mxCell>
        <mxCell id="KqwY5eyeyUPcqFjvpQES-18" value="Stop" style="html=1;align=center;verticalAlign=top;rounded=1;absoluteArcSize=1;arcSize=10;dashed=0;whiteSpace=wrap;" vertex="1" parent="1">
          <mxGeometry x="353" y="660" width="83" height="25" as="geometry" />
        </mxCell>
        <mxCell id="KqwY5eyeyUPcqFjvpQES-22" style="edgeStyle=orthogonalEdgeStyle;rounded=0;orthogonalLoop=1;jettySize=auto;html=1;exitX=0.5;exitY=1;exitDx=0;exitDy=0;entryX=0.5;entryY=0;entryDx=0;entryDy=0;" edge="1" parent="1" source="KqwY5eyeyUPcqFjvpQES-21" target="KqwY5eyeyUPcqFjvpQES-14">
          <mxGeometry relative="1" as="geometry" />
        </mxCell>
        <mxCell id="KqwY5eyeyUPcqFjvpQES-23" value="Destination?" style="edgeLabel;html=1;align=center;verticalAlign=middle;resizable=0;points=[];" vertex="1" connectable="0" parent="KqwY5eyeyUPcqFjvpQES-22">
          <mxGeometry x="-0.015" y="-2" relative="1" as="geometry">
            <mxPoint x="36" as="offset" />
          </mxGeometry>
        </mxCell>
        <mxCell id="KqwY5eyeyUPcqFjvpQES-21" value="Moving" style="html=1;align=center;verticalAlign=top;rounded=1;absoluteArcSize=1;arcSize=10;dashed=0;whiteSpace=wrap;" vertex="1" parent="1">
          <mxGeometry x="342" y="500" width="105" height="30" as="geometry" />
        </mxCell>
        <mxCell id="KqwY5eyeyUPcqFjvpQES-32" value="" style="ellipse;html=1;shape=endState;fillColor=strokeColor;" vertex="1" parent="1">
          <mxGeometry x="379" y="720" width="30" height="30" as="geometry" />
        </mxCell>
        <mxCell id="KqwY5eyeyUPcqFjvpQES-34" value="Rahul Siloniya&lt;br&gt;IT A1&lt;br&gt;12113018" style="text;html=1;strokeColor=none;fillColor=none;align=center;verticalAlign=middle;whiteSpace=wrap;rounded=0;" vertex="1" parent="1">
          <mxGeometry x="610" y="750" width="120" height="60" as="geometry" />
        </mxCell>
      </root>
    </mxGraphModel>
  </diagram>
</mxfile>
